<?xml version="1.0" standalone="no"?>
<!DOCTYPE svg PUBLIC "-//W3C//DTD SVG 20010904//EN"
 "http://www.w3.org/TR/2001/REC-SVG-20010904/DTD/svg10.dtd">
<svg version="1.0" xmlns="http://www.w3.org/2000/svg"
 width="1000.000000pt" height="1000.000000pt" viewBox="0 0 1000.000000 1000.000000"
 preserveAspectRatio="xMidYMid meet">
<metadata>
Created by potrace 1.14, written by Peter Selinger 2001-2017
</metadata>
<g transform="translate(0.000000,1000.000000) scale(0.100000,-0.100000)"
fill="#000000" stroke="none">
<path d="M4938 8464 c-39 -20 -65 -71 -72 -139 -3 -33 -8 -69 -10 -80 -2 -11
-7 -54 -11 -95 -4 -41 -8 -77 -10 -80 -1 -3 -6 -36 -9 -75 -4 -38 -9 -77 -11
-85 -2 -8 -6 -42 -10 -75 -3 -33 -15 -130 -25 -215 -11 -85 -22 -177 -25 -205
-3 -27 -8 -61 -10 -75 -2 -14 -6 -54 -10 -90 -3 -36 -8 -72 -10 -80 -2 -8 -7
-42 -10 -75 -3 -33 -8 -71 -10 -85 -2 -14 -6 -50 -10 -80 -4 -30 -8 -66 -10
-80 -2 -14 -7 -54 -11 -90 -4 -36 -8 -74 -9 -85 -2 -11 -6 -45 -10 -75 -3 -30
-8 -66 -10 -80 -2 -14 -7 -50 -10 -80 -3 -30 -7 -71 -10 -90 -5 -38 -13 -99
-20 -170 -3 -25 -8 -63 -11 -85 -4 -22 -8 -51 -9 -65 -4 -43 -17 -154 -20
-172 -2 -9 -6 -43 -10 -75 -3 -32 -7 -69 -10 -83 -2 -14 -6 -45 -9 -70 -15
-136 -20 -161 -37 -190 -25 -40 -80 -64 -127 -55 -20 4 -77 28 -126 54 -50 27
-185 97 -301 156 -115 59 -273 140 -350 180 -77 40 -234 121 -350 180 -115 59
-264 136 -331 171 -66 34 -136 65 -156 69 -74 14 -148 -48 -148 -125 0 -42 18
-72 97 -165 32 -38 184 -218 337 -400 153 -181 287 -341 299 -355 12 -14 90
-105 172 -203 290 -344 283 -335 271 -402 -13 -66 -14 -67 -506 -286 -74 -34
-155 -70 -180 -81 -25 -12 -70 -32 -100 -45 -30 -14 -73 -33 -95 -43 -22 -10
-80 -36 -130 -58 -49 -22 -124 -55 -165 -75 -41 -19 -129 -58 -195 -87 -187
-82 -268 -119 -295 -134 -84 -48 -90 -164 -12 -221 24 -17 42 -20 147 -19 111
0 565 11 820 19 61 2 214 7 340 10 127 3 298 8 381 10 166 4 198 -3 237 -57
26 -35 25 -80 -3 -188 -12 -47 -23 -92 -25 -100 -2 -8 -18 -69 -35 -135 -18
-66 -34 -128 -36 -137 -6 -27 -110 -432 -129 -503 -5 -16 -9 -34 -11 -40 -1
-5 -16 -66 -34 -135 -18 -69 -34 -136 -36 -149 -3 -14 -7 -28 -10 -33 -3 -4
-7 -16 -9 -25 -1 -10 -22 -91 -45 -181 -45 -177 -49 -207 -31 -249 19 -46 59
-68 119 -68 51 0 55 2 95 46 49 55 33 34 182 234 66 88 122 162 125 165 3 3
80 104 171 225 485 647 589 781 617 798 37 21 84 22 123 2 16 -9 62 -59 101
-113 40 -53 75 -99 78 -102 3 -3 78 -102 166 -220 466 -621 730 -969 760
-1000 31 -32 40 -35 89 -35 49 0 58 3 90 36 30 29 36 42 36 80 1 24 -4 62 -9
84 -6 22 -22 83 -35 135 -77 292 -257 993 -302 1170 -19 79 -38 153 -63 249
-31 122 -30 164 5 203 36 41 70 47 234 43 347 -9 602 -16 734 -20 77 -2 253
-7 390 -10 538 -15 506 -15 548 7 78 39 89 150 21 209 -11 9 -122 62 -249 119
-126 56 -378 169 -560 250 -181 82 -360 162 -397 179 -36 17 -69 31 -72 31 -3
0 -43 18 -88 39 -168 79 -239 111 -247 111 -17 0 -70 63 -76 91 -14 62 7 96
182 299 11 14 51 61 88 105 37 44 77 91 89 105 12 14 65 77 118 140 128 154
270 322 283 336 5 6 26 30 45 54 19 24 40 48 45 54 37 38 291 346 306 371 52
83 -14 195 -114 195 -22 0 -141 -58 -462 -225 -77 -40 -234 -121 -350 -180
-115 -59 -268 -138 -340 -175 -504 -262 -486 -255 -549 -225 -46 22 -72 66
-80 135 -4 30 -8 69 -10 85 -2 17 -7 59 -11 95 -4 36 -9 72 -10 80 -2 8 -10
78 -20 155 -9 77 -18 154 -20 170 -2 17 -6 51 -9 78 -12 97 -18 146 -31 242
-6 47 -13 110 -20 180 -3 28 -8 61 -10 75 -3 14 -7 48 -10 75 -3 28 -7 66 -10
85 -2 19 -7 58 -10 85 -3 28 -7 66 -10 85 -2 19 -7 53 -10 75 -3 22 -7 56 -10
75 -5 38 -13 110 -21 180 -2 25 -6 59 -9 75 -2 17 -11 89 -19 160 -23 190 -26
217 -31 245 -2 14 -6 50 -9 80 -6 57 -13 113 -21 165 -2 17 -7 57 -10 90 -3
33 -8 71 -10 85 -3 14 -7 48 -11 75 -8 68 -27 110 -59 131 -34 22 -102 26
-137 8z"/>
</g>
</svg>
